<svg id="Слой_1" data-name="Слой 1" xmlns="http://www.w3.org/2000/svg" viewBox="0 0 166.4 166.4"><defs><style>.cls-1{font-size:15.36px;}.cls-1,.cls-3,.cls-4{fill:#fff;}.cls-1,.cls-3{font-family:Arial-BoldMT, Arial;font-weight:700;}.cls-2{letter-spacing:-0.07em;}.cls-3{font-size:34.56px;}</style></defs><title>Монтажная область 66</title><text class="cls-1" transform="translate(50.06 104.57)">COM<tspan class="cls-2" x="35.84" y="0">P</tspan><tspan x="44.94" y="0">AS</tspan></text><text class="cls-3" transform="translate(47.69 84.8)">ART</text><path class="cls-4" d="M83.2,166.4A83.2,83.2,0,1,1,101,1.92a3.2,3.2,0,0,1-1.37,6.25A76.81,76.81,0,1,0,160,83.2a76.63,76.63,0,0,0-1.77-16.46,3.2,3.2,0,1,1,6.25-1.37,83.25,83.25,0,0,1-81.28,101Z"/><path class="cls-4" d="M132.63,50.28l8.26-24.77-24.77,8.26A58.21,58.21,0,0,1,132.63,50.28Z"/></svg>