<svg id="Слой_1" data-name="Слой 1" xmlns="http://www.w3.org/2000/svg" viewBox="0 0 20 20"><defs><style>.cls-1{fill:#fff;}</style></defs><title>Монтажная область 22</title><path class="cls-1" d="M10,4a6,6,0,1,0,6,6A6,6,0,0,0,10,4Zm0,11.08A5.08,5.08,0,1,1,15.08,10,5.09,5.09,0,0,1,10,15.08Z"/><path class="cls-1" d="M15.8,16.94a9.92,9.92,0,0,0-8.36-1.52A9.64,9.64,0,0,0,4.2,16.94a6.26,6.26,0,0,0-.76.6,6.26,6.26,0,0,0,.76.6,7.58,7.58,0,0,1,.8-.6,9,9,0,0,1,10,0,7.58,7.58,0,0,1,.8.6c.26-.19.52-.39.76-.6C16.32,17.33,16.06,17.13,15.8,16.94Z"/><path class="cls-1" d="M10,0A10,10,0,0,0,3.44,17.54a6.26,6.26,0,0,0,.76.6,10,10,0,0,0,11.6,0c.26-.19.52-.39.76-.6A10,10,0,0,0,10,0Zm5.8,16.94a7.58,7.58,0,0,1-.8.6,9,9,0,0,1-10,0,7.58,7.58,0,0,1-.8-.6,9.05,9.05,0,1,1,11.6,0Z"/></svg>