<svg id="Слой_1" data-name="Слой 1" xmlns="http://www.w3.org/2000/svg" viewBox="0 0 12 12"><defs><style>.cls-1{fill:#999998;}</style></defs><title>Монтажная область 14</title><path class="cls-1" d="M3.05,12a1.24,1.24,0,0,1-1.22-1.41l.48-2.85-1.94-2a1.27,1.27,0,0,1-.3-1.31,1.2,1.2,0,0,1,1-.81l2.64-.4L4.91.73A1.17,1.17,0,0,1,6,0,1.2,1.2,0,0,1,7.1.7L8.28,3.21l2.67.4a1.22,1.22,0,0,1,1,.81,1.25,1.25,0,0,1-.31,1.31l-1.93,2,.47,2.81a1.26,1.26,0,0,1-.54,1.24,1.23,1.23,0,0,1-1.28,0L6,10.51,3.66,11.84A1.21,1.21,0,0,1,3.05,12Zm2.7-1.62,0,0Zm.53,0-.06,0Zm-3.47,0Zm6.35-.06h0ZM4,7.84l-.33,2,1.68-.95a1.12,1.12,0,0,1,1.25,0l1.68.91L8,7.62a1.4,1.4,0,0,1,.37-1L9.78,5.17l-2-.29a1.16,1.16,0,0,1-1-.72L6,2.42,5.17,4.2a1.18,1.18,0,0,1-1,.72l-2,.29L3.69,6.7A1.17,1.17,0,0,1,4,7.84ZM2.47,7.9h0Zm7.07,0h0ZM1.33,5.34h0Zm9.36,0h0Zm-9.1-.74h0Zm8.81,0ZM6.49,1.4l0,.06Z"/></svg>