<svg id="Слой_1" data-name="Слой 1" xmlns="http://www.w3.org/2000/svg" viewBox="0 0 12.31 12"><defs><style>.cls-1{fill:#999998;}</style></defs><title>Монтажная область 44</title><path class="cls-1" d="M10.45,1.48A6.76,6.76,0,0,0,6.16,0a6.79,6.79,0,0,0-4.3,1.48A4.89,4.89,0,0,0,0,5.26,4.89,4.89,0,0,0,1.86,9a6.76,6.76,0,0,0,4.29,1.48,7.28,7.28,0,0,0,1.52-.16L8.84,11.7a.83.83,0,0,0,.67.3.89.89,0,0,0,.88-.89v-2a4.9,4.9,0,0,0,1.92-3.81A4.89,4.89,0,0,0,10.45,1.48ZM8,8.94Zm1-1a.89.89,0,0,0-.39.73v.13A.89.89,0,0,0,8,8.47a1.09,1.09,0,0,0-.26,0,5.45,5.45,0,0,1-1.56.23c-2.42,0-4.38-1.56-4.38-3.48s2-3.48,4.38-3.48,4.38,1.56,4.38,3.48A3.23,3.23,0,0,1,9,7.9Z"/></svg>