<svg id="Слой_1" data-name="Слой 1" xmlns="http://www.w3.org/2000/svg" viewBox="0 0 24 24"><defs><style>.cls-1{fill:#999998;}.cls-2{fill:#fff;}</style></defs><title>Монтажная область 21</title><path class="cls-1" d="M4,3.25,3.25,4,2.59,3.3a7.93,7.93,0,0,1,.71-.71Z"/><path class="cls-2" d="M10,0A10,10,0,0,0,3.3,2.59a7.93,7.93,0,0,0-.71.71A10,10,0,0,0,16.71,17.41a7.71,7.71,0,0,0,.7-.7A10,10,0,0,0,10,0Zm6.74,16c-.22.24-.46.48-.7.7A9.05,9.05,0,0,1,3.25,4L4,3.25A9.05,9.05,0,0,1,16.74,16Z"/><path class="cls-2" d="M24,23.3l-.7.7L16,16.74c.24-.22.48-.46.7-.7Z"/></svg>